<svg class="diagram-root" style="background: #f5f6f6" xmlns="http://www.w3.org/2000/svg" xmlns:xlink="http://www.w3.org/1999/xlink"><style>.diagram-root { font-family: "Helvetica Neue", sans-serif; font-size: 12px; } .t { overflow: visible; } .t-bg { y: 40; fill: #fff;   } .th { fill: #005aa0;   } .tht { fill: #fff; font-size: 14px;  } .tf { fill: #323c46; overflow: visible; } .tf.pk { fill: #005aa0; font-weight: bold; } .tf.fk { font-weight: bold; } .ty { fill: #adb1b5; font-weight: normal; text-anchor: end; } .r { fill: transparent; stroke: #c3c3c3; stroke-width: 1; } .l { stroke: 1; } .i { fill: #c2c7ce; stroke: #c2c7ce; } .i.ix { fill: #afb3b6; stroke: #000; } .fa { fill: transparent; overflow: visible; } .fa .bg.hover { fill: #f7f7f7; } .c { cy: 12; r: 4; stroke: #d2d2dc; fill: #d2d2dc; } .hr { fill: transparent; stroke: #323c46; stroke-opacity: 0.035; stroke-width: 13; } .dc { stroke: #fa5a3c; fill: #fa5a3c; } .x { stroke: white; stroke-width: 1; } .hl .th { fill: #1b9bff; } .hl .tht {  } .fhl .bg { fill: #e7f4ff; } .fhls .bg {  } .r.hl { stroke: #1b9bff; } .dim { opacity: 0.25; }</style><g class="drawing-wrapper" transform="translate(6, -3) scale(1,1)"><g class="rs"><path d="M 269 347 m -1, 0 a 1,1 0 1,0 2,0 a 1,1 0 1,0 -2,0 M 269 347 m -0.5, 0 a 0.5,0.5 0 1,0 1,0 a 0.5,0.5 0 1,0 -1,0  M269 347 L269 347 257 347 M 269 353 m -1, 0 a 1,1 0 1,0 2,0 a 1,1 0 1,0 -2,0 M 269 353 m -0.5, 0 a 0.5,0.5 0 1,0 1,0 a 0.5,0.5 0 1,0 -1,0  M269 353 L269 353 262 347 269 341 M 269 341 m -1, 0 a 1,1 0 1,0 2,0 a 1,1 0 1,0 -2,0 M 269 341 m -0.5, 0 a 0.5,0.5 0 1,0 1,0 a 0.5,0.5 0 1,0 -1,0  M257 347 Q 239.94 347, 222.88 246 T 188.75 145 M 176.75 145 m -1, 0 a 1,1 0 1,0 2,0 a 1,1 0 1,0 -2,0 M 176.75 145 m -0.5, 0 a 0.5,0.5 0 1,0 1,0 a 0.5,0.5 0 1,0 -1,0  M176.75 145 L176.75 145 188.75 145 M182.75 151 L182.75 151 182.75 139" id="h3448510770" class="r"></path><path d="M 429.73 372 m -1, 0 a 1,1 0 1,0 2,0 a 1,1 0 1,0 -2,0 M 429.73 372 m -0.5, 0 a 0.5,0.5 0 1,0 1,0 a 0.5,0.5 0 1,0 -1,0  M429.73 372 L429.73 372 441.73 372 M 429.73 378 m -1, 0 a 1,1 0 1,0 2,0 a 1,1 0 1,0 -2,0 M 429.73 378 m -0.5, 0 a 0.5,0.5 0 1,0 1,0 a 0.5,0.5 0 1,0 -1,0  M429.73 378 L429.73 378 436.73 372 429.73 366 M 429.73 366 m -1, 0 a 1,1 0 1,0 2,0 a 1,1 0 1,0 -2,0 M 429.73 366 m -0.5, 0 a 0.5,0.5 0 1,0 1,0 a 0.5,0.5 0 1,0 -1,0  M441.73 372 C 491.73 372, 634.326 452, 204.07 452 M 192.07 452 m -1, 0 a 1,1 0 1,0 2,0 a 1,1 0 1,0 -2,0 M 192.07 452 m -0.5, 0 a 0.5,0.5 0 1,0 1,0 a 0.5,0.5 0 1,0 -1,0  M192.07 452 L192.07 452 204.07 452 M198.07 458 L198.07 458 198.07 446" id="h609979497" class="r"></path><path d="M 295 165 m -1, 0 a 1,1 0 1,0 2,0 a 1,1 0 1,0 -2,0 M 295 165 m -0.5, 0 a 0.5,0.5 0 1,0 1,0 a 0.5,0.5 0 1,0 -1,0  M295 165 L295 165 283 165 M 295 171 m -1, 0 a 1,1 0 1,0 2,0 a 1,1 0 1,0 -2,0 M 295 171 m -0.5, 0 a 0.5,0.5 0 1,0 1,0 a 0.5,0.5 0 1,0 -1,0  M295 171 L295 171 288 165 295 159 M 295 159 m -1, 0 a 1,1 0 1,0 2,0 a 1,1 0 1,0 -2,0 M 295 159 m -0.5, 0 a 0.5,0.5 0 1,0 1,0 a 0.5,0.5 0 1,0 -1,0  M283 165 Q 259.44 165, 235.88 155 T 188.75 145 M 176.75 145 m -1, 0 a 1,1 0 1,0 2,0 a 1,1 0 1,0 -2,0 M 176.75 145 m -0.5, 0 a 0.5,0.5 0 1,0 1,0 a 0.5,0.5 0 1,0 -1,0  M176.75 145 L176.75 145 188.75 145 M182.75 151 L182.75 151 182.75 139" id="h147692951" class="r"></path><path d="M 559 137 m -1, 0 a 1,1 0 1,0 2,0 a 1,1 0 1,0 -2,0 M 559 137 m -0.5, 0 a 0.5,0.5 0 1,0 1,0 a 0.5,0.5 0 1,0 -1,0  M559 137 L559 137 547 137 M 559 143 m -1, 0 a 1,1 0 1,0 2,0 a 1,1 0 1,0 -2,0 M 559 143 m -0.5, 0 a 0.5,0.5 0 1,0 1,0 a 0.5,0.5 0 1,0 -1,0  M559 143 L559 143 552 137 559 131 M 559 131 m -1, 0 a 1,1 0 1,0 2,0 a 1,1 0 1,0 -2,0 M 559 131 m -0.5, 0 a 0.5,0.5 0 1,0 1,0 a 0.5,0.5 0 1,0 -1,0  M547 137 Q 526.68 137, 506.37 113.5 T 465.73 90 M 453.73 90 m -1, 0 a 1,1 0 1,0 2,0 a 1,1 0 1,0 -2,0 M 453.73 90 m -0.5, 0 a 0.5,0.5 0 1,0 1,0 a 0.5,0.5 0 1,0 -1,0  M453.73 90 L453.73 90 465.73 90 M459.73 96 L459.73 96 459.73 84" id="h1091219583" class="r"></path><path d="M 559 162 m -1, 0 a 1,1 0 1,0 2,0 a 1,1 0 1,0 -2,0 M 559 162 m -0.5, 0 a 0.5,0.5 0 1,0 1,0 a 0.5,0.5 0 1,0 -1,0  M559 162 L559 162 547 162 M 559 168 m -1, 0 a 1,1 0 1,0 2,0 a 1,1 0 1,0 -2,0 M 559 168 m -0.5, 0 a 0.5,0.5 0 1,0 1,0 a 0.5,0.5 0 1,0 -1,0  M559 168 L559 168 552 162 559 156 M 559 156 m -1, 0 a 1,1 0 1,0 2,0 a 1,1 0 1,0 -2,0 M 559 156 m -0.5, 0 a 0.5,0.5 0 1,0 1,0 a 0.5,0.5 0 1,0 -1,0  M547 162 C 458.6 162, 473 451, 523 451 M 535 451 m -1, 0 a 1,1 0 1,0 2,0 a 1,1 0 1,0 -2,0 M 535 451 m -0.5, 0 a 0.5,0.5 0 1,0 1,0 a 0.5,0.5 0 1,0 -1,0  M535 451 L535 451 523 451 M529 457 L529 457 529 445" id="h2487584879" class="r"></path><path d="M 829.29 279.14 m -1, 0 a 1,1 0 1,0 2,0 a 1,1 0 1,0 -2,0 M 829.29 279.14 m -0.5, 0 a 0.5,0.5 0 1,0 1,0 a 0.5,0.5 0 1,0 -1,0  M829.29 279.14 L829.29 279.14 817.29 279.14 M 829.29 285.14 m -1, 0 a 1,1 0 1,0 2,0 a 1,1 0 1,0 -2,0 M 829.29 285.14 m -0.5, 0 a 0.5,0.5 0 1,0 1,0 a 0.5,0.5 0 1,0 -1,0  M829.29 285.14 L829.29 285.14 822.29 279.14 829.29 273.14 M 829.29 273.14 m -1, 0 a 1,1 0 1,0 2,0 a 1,1 0 1,0 -2,0 M 829.29 273.14 m -0.5, 0 a 0.5,0.5 0 1,0 1,0 a 0.5,0.5 0 1,0 -1,0  M817.29 279.14 C 767.29 279.14, 766.8639999999999 505.57, 818 505.57 M 830 505.57 m -1, 0 a 1,1 0 1,0 2,0 a 1,1 0 1,0 -2,0 M 830 505.57 m -0.5, 0 a 0.5,0.5 0 1,0 1,0 a 0.5,0.5 0 1,0 -1,0  M830 505.57 L830 505.57 818 505.57 M824 511.57 L824 511.57 824 499.57" id="h1236969573" class="r"></path><path d="M 829.29 304.14 m -1, 0 a 1,1 0 1,0 2,0 a 1,1 0 1,0 -2,0 M 829.29 304.14 m -0.5, 0 a 0.5,0.5 0 1,0 1,0 a 0.5,0.5 0 1,0 -1,0  M829.29 304.14 L829.29 304.14 817.29 304.14 M 829.29 310.14 m -1, 0 a 1,1 0 1,0 2,0 a 1,1 0 1,0 -2,0 M 829.29 310.14 m -0.5, 0 a 0.5,0.5 0 1,0 1,0 a 0.5,0.5 0 1,0 -1,0  M829.29 310.14 L829.29 310.14 822.29 304.14 829.29 298.14 M 829.29 298.14 m -1, 0 a 1,1 0 1,0 2,0 a 1,1 0 1,0 -2,0 M 829.29 298.14 m -0.5, 0 a 0.5,0.5 0 1,0 1,0 a 0.5,0.5 0 1,0 -1,0  M817.29 304.14 Q 796.58 304.14, 775.87 377.57 T 734.45 451 M 722.45 451 m -1, 0 a 1,1 0 1,0 2,0 a 1,1 0 1,0 -2,0 M 722.45 451 m -0.5, 0 a 0.5,0.5 0 1,0 1,0 a 0.5,0.5 0 1,0 -1,0  M722.45 451 L722.45 451 734.45 451 M728.45 457 L728.45 457 728.45 445" id="h2008956127" class="r"></path></g><g class="hrs"></g><g class="ts"><svg width="160.75" height="150" x="16" y="88" id="h3507883286" class="t"><rect height="40" width="160.75" class="th"></rect><text x="13" y="25" class="tht">Pacientes</text><rect height="110" width="160.75" class="t-bg"></rect><text x="13" y="61" class="tf pk">id_paciente<tspan x="147.75" class="ty">int</tspan></text><path d="M7,14A2,2 0 0,1 5,12A2,2 0 0,1 7,10A2,2 0 0,1 9,12A2,2 0 0,1 7,14M12.65,10C11.83,7.67 9.61,6 7, 6A6, 6 0 0, 0 1, 12A6, 6 0 0, 0 7, 18C9.61, 18 11.83, 16.33 12.65, 14H17V18H21V14H23V10H12.65Z" class="i pk" transform="translate(115.076171875, 48) scale(0.65)"></path><text x="13" y="86" class="tf">nome<tspan x="147.75" class="ty">varchar(255)</tspan></text><text x="13" y="111" class="tf">data_nascimento<tspan x="147.75" class="ty">date</tspan></text><text x="13" y="136" class="tf">sexo<tspan x="147.75" class="ty">char(1)</tspan></text></svg><svg width="164.07" height="100" x="28" y="395" id="h4205825626" class="t"><rect height="40" width="164.07" class="th"></rect><text x="13" y="25" class="tht">Hospitais</text><rect height="60" width="164.07" class="t-bg"></rect><text x="13" y="61" class="tf pk">id_hospital<tspan x="151.07" class="ty">int</tspan></text><path d="M7,14A2,2 0 0,1 5,12A2,2 0 0,1 7,10A2,2 0 0,1 9,12A2,2 0 0,1 7,14M12.65,10C11.83,7.67 9.61,6 7, 6A6, 6 0 0, 0 1, 12A6, 6 0 0, 0 7, 18C9.61, 18 11.83, 16.33 12.65, 14H17V18H21V14H23V10H12.65Z" class="i pk" transform="translate(118.396171875, 48) scale(0.65)"></path><text x="13" y="86" class="tf">endereco<tspan x="151.07" class="ty">varchar(255)</tspan></text></svg><svg width="160.73" height="125" x="269" y="265" id="h3698309288" class="t"><rect height="40" width="160.73" class="th"></rect><text x="13" y="25" class="tht">Atendimento</text><rect height="85" width="160.73" class="t-bg"></rect><text x="13" y="61" class="tf pk">id_atendimento<tspan x="147.73" class="ty">int</tspan></text><path d="M7,14A2,2 0 0,1 5,12A2,2 0 0,1 7,10A2,2 0 0,1 9,12A2,2 0 0,1 7,14M12.65,10C11.83,7.67 9.61,6 7, 6A6, 6 0 0, 0 1, 12A6, 6 0 0, 0 7, 18C9.61, 18 11.83, 16.33 12.65, 14H17V18H21V14H23V10H12.65Z" class="i pk" transform="translate(115.05617187499999, 48) scale(0.65)"></path><text x="13" y="86" class="tf fk">id_paciente<tspan x="147.73" class="ty">int</tspan></text><text x="13" y="111" class="tf fk">id_hospital<tspan x="147.73" class="ty">int</tspan></text></svg><svg width="158.73" height="150" x="295" y="33" id="h3064228859" class="t"><rect height="40" width="158.73" class="th"></rect><text x="13" y="25" class="tht">Amostras</text><rect height="110" width="158.73" class="t-bg"></rect><text x="13" y="61" class="tf pk">id_amostra<tspan x="145.73" class="ty">int</tspan></text><path d="M7,14A2,2 0 0,1 5,12A2,2 0 0,1 7,10A2,2 0 0,1 9,12A2,2 0 0,1 7,14M12.65,10C11.83,7.67 9.61,6 7, 6A6, 6 0 0, 0 1, 12A6, 6 0 0, 0 7, 18C9.61, 18 11.83, 16.33 12.65, 14H17V18H21V14H23V10H12.65Z" class="i pk" transform="translate(113.05617187499999, 48) scale(0.65)"></path><text x="13" y="86" class="tf">data_coleta<tspan x="145.73" class="ty">date</tspan></text><text x="13" y="111" class="tf">estado_coleta<tspan x="145.73" class="ty">char(2)</tspan></text><text x="13" y="136" class="tf fk">id_paciente<tspan x="145.73" class="ty">int</tspan></text></svg><svg width="187.45" height="175" x="535" y="394" id="h2508101173" class="t"><rect height="40" width="187.45" class="th"></rect><text x="13" y="25" class="tht">Sequenciamento</text><rect height="135" width="187.45" class="t-bg"></rect><text x="13" y="61" class="tf pk">id_sequenciamento<tspan x="174.45" class="ty">int</tspan></text><path d="M7,14A2,2 0 0,1 5,12A2,2 0 0,1 7,10A2,2 0 0,1 9,12A2,2 0 0,1 7,14M12.65,10C11.83,7.67 9.61,6 7, 6A6, 6 0 0, 0 1, 12A6, 6 0 0, 0 7, 18C9.61, 18 11.83, 16.33 12.65, 14H17V18H21V14H23V10H12.65Z" class="i pk" transform="translate(141.776171875, 48) scale(0.65)"></path><text x="13" y="86" class="tf">lote<tspan x="174.45" class="ty">char(5)</tspan></text><text x="13" y="111" class="tf">data_sequenciamento<tspan x="174.45" class="ty">date</tspan></text><text x="13" y="136" class="tf">equipamento<tspan x="174.45" class="ty">char(20)</tspan></text><text x="13" y="161" class="tf">id_relatorio<tspan x="174.45" class="ty">int</tspan></text></svg><svg width="196.43" height="125" x="559" y="55" id="h3690368933" class="t"><rect height="40" width="196.43" class="th"></rect><text x="13" y="25" class="tht">Sequenciamento_amostras</text><rect height="85" width="196.43" class="t-bg"></rect><text x="13" y="61" class="tf pk">id_seq_amostra<tspan x="183.43" class="ty">int</tspan></text><path d="M7,14A2,2 0 0,1 5,12A2,2 0 0,1 7,10A2,2 0 0,1 9,12A2,2 0 0,1 7,14M12.65,10C11.83,7.67 9.61,6 7, 6A6, 6 0 0, 0 1, 12A6, 6 0 0, 0 7, 18C9.61, 18 11.83, 16.33 12.65, 14H17V18H21V14H23V10H12.65Z" class="i pk" transform="translate(150.756171875, 48) scale(0.65)"></path><text x="13" y="86" class="tf fk">id_amostra<tspan x="183.43" class="ty">int</tspan></text><text x="13" y="111" class="tf fk">id_sequenciamento<tspan x="183.43" class="ty">int</tspan></text></svg><svg width="182.07" height="150" x="830" y="448.57" id="h193154240" class="t"><rect height="40" width="182.07" class="th"></rect><text x="13" y="25" class="tht">Relatorios</text><rect height="110" width="182.07" class="t-bg"></rect><text x="13" y="61" class="tf pk">id_relatorio<tspan x="169.07" class="ty">int</tspan></text><path d="M7,14A2,2 0 0,1 5,12A2,2 0 0,1 7,10A2,2 0 0,1 9,12A2,2 0 0,1 7,14M12.65,10C11.83,7.67 9.61,6 7, 6A6, 6 0 0, 0 1, 12A6, 6 0 0, 0 7, 18C9.61, 18 11.83, 16.33 12.65, 14H17V18H21V14H23V10H12.65Z" class="i pk" transform="translate(136.396171875, 48) scale(0.65)"></path><text x="13" y="86" class="tf">data_relatorio<tspan x="169.07" class="ty">date</tspan></text><text x="13" y="111" class="tf">observacoes<tspan x="169.07" class="ty">varchar(255)</tspan></text><text x="13" y="136" class="tf">id_sequenciamento<tspan x="169.07" class="ty">int</tspan></text></svg><svg width="192.55" height="125" x="829.29" y="197.14" id="h3096545568" class="t"><rect height="40" width="192.55" class="th"></rect><text x="13" y="25" class="tht">Relatorio_sequenciamento</text><rect height="85" width="192.55" class="t-bg"></rect><text x="13" y="61" class="tf pk">id_rel_seq<tspan x="179.55" class="ty">int</tspan></text><path d="M7,14A2,2 0 0,1 5,12A2,2 0 0,1 7,10A2,2 0 0,1 9,12A2,2 0 0,1 7,14M12.65,10C11.83,7.67 9.61,6 7, 6A6, 6 0 0, 0 1, 12A6, 6 0 0, 0 7, 18C9.61, 18 11.83, 16.33 12.65, 14H17V18H21V14H23V10H12.65Z" class="i pk" transform="translate(146.876171875, 48) scale(0.65)"></path><text x="13" y="86" class="tf fk">id_relatorio<tspan x="179.55" class="ty">int</tspan></text><text x="13" y="111" class="tf fk">id_sequenciamento<tspan x="179.55" class="ty">int</tspan></text></svg></g></g><text class="qdbd-link" x="10" y="20">www.quickdatabasediagrams.com</text></svg>